<?xml version="1.0" standalone="no"?><!DOCTYPE svg PUBLIC "-//W3C//DTD SVG 1.1//EN" "http://www.w3.org/Graphics/SVG/1.1/DTD/svg11.dtd"><svg t="1622888557702" class="icon" viewBox="0 0 1024 1024" version="1.1" xmlns="http://www.w3.org/2000/svg" p-id="21021" width="16" height="16" xmlns:xlink="http://www.w3.org/1999/xlink"><defs><style type="text/css"></style></defs><path d="M504.746667 384L640 518.826667V512a128 128 0 0 0-128-128h-7.253333m-183.466667 34.133333l66.133333 66.133334c-2.133333 8.96-3.413333 17.92-3.413333 27.733333a128 128 0 0 0 128 128c9.386667 0 18.773333-1.28 27.733333-3.413333l66.133334 66.133333c-28.586667 14.08-60.16 22.613333-93.866667 22.613333a213.333333 213.333333 0 0 1-213.333333-213.333333c0-33.706667 8.533333-65.28 22.613333-93.866667M85.333333 182.186667l97.28 97.28 19.2 19.2C131.413333 354.133333 75.946667 426.666667 42.666667 512c73.813333 187.306667 256 320 469.333333 320 66.133333 0 129.28-12.8 186.88-35.84l18.346667 17.92L841.813333 938.666667 896 884.48 139.52 128M512 298.666667a213.333333 213.333333 0 0 1 213.333333 213.333333c0 27.306667-5.546667 53.76-15.36 77.653333l125.013334 125.013334c64-53.333333 115.2-123.306667 146.346666-202.666667-73.813333-187.306667-256-320-469.333333-320-59.733333 0-116.906667 10.666667-170.666667 29.866667l92.586667 91.733333C458.24 304.213333 484.266667 298.666667 512 298.666667z" fill="#c5c5c5" p-id="21022"></path></svg>