<?xml version="1.0" standalone="no"?><!DOCTYPE svg PUBLIC "-//W3C//DTD SVG 1.1//EN" "http://www.w3.org/Graphics/SVG/1.1/DTD/svg11.dtd"><svg t="1622888504293" class="icon" viewBox="0 0 1024 1024" version="1.1" xmlns="http://www.w3.org/2000/svg" p-id="20682" width="16" height="16" xmlns:xlink="http://www.w3.org/1999/xlink"><defs><style type="text/css"></style></defs><path d="M512 384a128 128 0 0 0-128 128 128 128 0 0 0 128 128 128 128 0 0 0 128-128 128 128 0 0 0-128-128m0 341.333333a213.333333 213.333333 0 0 1-213.333333-213.333333 213.333333 213.333333 0 0 1 213.333333-213.333333 213.333333 213.333333 0 0 1 213.333333 213.333333 213.333333 213.333333 0 0 1-213.333333 213.333333m0-533.333333C298.666667 192 116.48 324.693333 42.666667 512c73.813333 187.306667 256 320 469.333333 320s395.52-132.693333 469.333333-320c-73.813333-187.306667-256-320-469.333333-320z" fill="#c5c5c5" p-id="20683"></path></svg>