<?xml version="1.0" standalone="no"?><!DOCTYPE svg PUBLIC "-//W3C//DTD SVG 1.1//EN" "http://www.w3.org/Graphics/SVG/1.1/DTD/svg11.dtd"><svg t="1621328495629" class="icon" viewBox="0 0 1024 1024" version="1.1" xmlns="http://www.w3.org/2000/svg" p-id="25087" width="16" height="16" xmlns:xlink="http://www.w3.org/1999/xlink"><defs><style type="text/css"></style></defs><path d="M896 704c0 16.213333-8.96 30.293333-22.613333 37.546667l-337.066667 189.44c-6.826667 5.12-15.36 7.68-24.32 7.68-8.96 0-17.493333-2.56-24.32-7.68l-337.066667-189.44A42.282667 42.282667 0 0 1 128 704v-384c0-16.213333 8.96-30.293333 22.613333-37.546667l337.066667-189.44c6.826667-5.12 15.36-7.68 24.32-7.68 8.96 0 17.493333 2.56 24.32 7.68l337.066667 189.44c13.653333 7.253333 22.613333 21.333333 22.613333 37.546667v384M512 177.066667L257.706667 320 512 462.933333l254.293333-142.933333L512 177.066667z" fill="#c5c5c5" p-id="25088"></path></svg>