<?xml version="1.0" standalone="no"?><!DOCTYPE svg PUBLIC "-//W3C//DTD SVG 1.1//EN" "http://www.w3.org/Graphics/SVG/1.1/DTD/svg11.dtd"><svg t="1621433302678" class="icon" viewBox="0 0 1024 1024" version="1.1" xmlns="http://www.w3.org/2000/svg" p-id="20925" width="16" height="16" xmlns:xlink="http://www.w3.org/1999/xlink"><defs><style type="text/css"></style></defs><path d="M256 85.333333a85.333333 85.333333 0 0 0-85.333333 85.333334v682.666666a85.333333 85.333333 0 0 0 85.333333 85.333334h512a85.333333 85.333333 0 0 0 85.333333-85.333334V341.333333l-256-256H256m298.666667 64L789.333333 384H554.666667V149.333333M512 469.333333a128 128 0 0 1 128 128v42.666667h42.666667v170.666667H341.333333v-170.666667h42.666667v-42.666667c0-69.973333 57.173333-128 128-128m0 85.333334a42.666667 42.666667 0 0 0-42.666667 42.666666v42.666667h85.333334v-42.666667c0-22.613333-19.2-42.666667-42.666667-42.666666z" fill="#c5c5c5" p-id="20926"></path></svg>